<?xml version="1.0" standalone="no"?>
<!DOCTYPE svg PUBLIC "-//W3C//DTD SVG 20010904//EN"
 "http://www.w3.org/TR/2001/REC-SVG-20010904/DTD/svg10.dtd">
<svg version="1.0" xmlns="http://www.w3.org/2000/svg"
 width="300.000000pt" height="300.000000pt" viewBox="0 0 300.000000 300.000000"
 preserveAspectRatio="xMidYMid meet">
<metadata>
Created by potrace 1.10, written by Peter Selinger 2001-2011
</metadata>
<g transform="translate(0.000000,300.000000) scale(0.100000,-0.100000)"
fill="#000000" stroke="none">
<path d="M1645 1778 c-10 -23 -51 -90 -90 -148 -93 -136 -115 -180 -115 -230
0 -56 24 -100 54 -100 37 0 108 28 146 59 19 15 45 33 58 40 26 14 30 36 5 28
-10 -3 -56 -16 -103 -30 -47 -13 -95 -29 -108 -36 -12 -6 -22 -9 -22 -6 0 14
49 98 109 189 144 215 149 227 113 259 -10 10 -21 17 -23 17 -3 0 -14 -19 -24
-42z m-115 -213 c-6 -8 -27 -42 -46 -77 -37 -69 -47 -73 -13 -5 25 48 58 97
66 97 3 0 0 -7 -7 -15z"/>
<path d="M1408 1780 c-26 -27 -30 -36 -25 -68 15 -91 130 -113 172 -32 19 37
19 64 -1 28 -24 -46 -84 -66 -84 -29 0 21 48 61 74 61 25 0 19 26 -10 49 -40
31 -89 28 -126 -9z m96 -8 c3 -5 -10 -14 -29 -20 -18 -7 -36 -19 -39 -27 -6
-17 -26 -20 -26 -5 0 33 79 76 94 52z"/>
<path d="M1620 1569 c-24 -46 -25 -87 -4 -117 33 -47 103 -10 129 68 16 48 16
52 0 70 -12 14 -30 19 -62 18 -41 0 -45 -3 -63 -39z m100 0 c0 -38 -69 -124
-86 -107 -3 3 0 26 6 50 9 34 18 47 38 55 36 15 42 15 42 2z"/>
</g>
</svg>
