<svg  version="1.1" id="Layer_1" xmlns="http://www.w3.org/2000/svg" xmlns:xlink="http://www.w3.org/1999/xlink" x="10px" y="10px"
	  viewBox="0 0 496 496" enable-background="new 0 0 496 496" xml:space="preserve">
<path fill="#1800ad" opacity="1.000000" stroke="none" 
	d="
M100.932190,263.187134 
	C100.092590,256.254395 102.402817,249.973221 102.553352,243.180115 
	C96.229073,242.869919 90.228401,243.894379 84.241837,244.932617 
	C81.580177,245.394226 80.666122,247.359344 80.046959,249.864944 
	C77.167694,261.516693 76.215958,273.465607 74.338791,285.270050 
	C73.741394,289.026764 73.211273,292.654510 69.667503,295.274994 
	C66.547043,297.582397 65.017677,296.144470 64.931175,293.449249 
	C64.719620,286.858185 63.562748,280.163208 65.857224,273.670135 
	C66.132431,272.891388 66.699219,271.971832 66.499733,271.306915 
	C64.558640,264.837189 66.562645,258.431213 66.647820,252.002258 
	C66.655998,251.385345 66.384026,250.764709 66.104980,249.547836 
	C57.157837,252.613220 48.022774,256.060394 42.353329,243.960480 
	C48.897511,240.339111 56.122395,238.427078 63.288567,236.775269 
	C68.401917,235.596664 70.583000,233.197800 71.802849,228.124054 
	C74.832886,215.521210 78.718987,203.126617 82.043892,190.590729 
	C83.023003,186.899200 84.723709,186.142288 88.142021,187.467850 
	C94.219421,189.824554 96.971138,194.158768 95.134010,200.258453 
	C92.307167,209.644196 89.011467,218.888733 85.914230,228.193024 
	C85.498154,229.442947 84.868523,230.661407 85.495407,232.503067 
	C91.452835,232.141754 97.561684,232.005096 103.604034,231.299210 
	C106.335876,230.980057 107.770493,228.008499 108.054497,225.791016 
	C109.836777,211.875122 115.319527,198.889282 117.916725,185.196960 
	C118.314026,183.102402 118.848656,181.033890 119.318932,178.956970 
	C128.287338,180.529053 132.206299,185.988113 129.922760,194.885834 
	C127.280235,205.182281 123.971115,215.307617 120.952423,225.507553 
	C120.489578,227.071457 119.621666,228.560776 120.023941,230.352158 
	C121.884811,232.317322 125.185104,231.389206 126.878624,233.989517 
	C129.129639,237.445831 128.370697,239.737961 124.386604,240.271530 
	C114.968285,241.532837 114.104836,243.551208 112.758156,253.299667 
	C111.564171,261.942780 109.167053,270.434357 108.874039,279.247894 
	C108.796967,281.565735 108.416405,283.878204 108.419205,286.192871 
	C108.423103,289.421722 107.770882,292.493286 106.485947,295.404480 
	C105.534088,297.561035 104.087952,299.870056 101.507683,299.552460 
	C98.776062,299.216248 98.740570,296.380096 98.814049,294.314117 
	C99.138405,285.193909 99.286407,276.050751 100.783096,267.014893 
	C100.972458,265.871674 101.469254,264.777100 100.932190,263.187134 
z"/>
<path fill="#00bf63" opacity="1.000000" stroke="none" 
	d="
M288.348450,267.492676 
	C285.353912,269.019073 283.063080,270.747070 280.935272,272.996185 
	C271.552185,282.914215 259.009613,286.416595 246.261337,289.283386 
	C243.142181,289.984802 240.827576,288.206970 239.055771,285.771118 
	C233.248093,277.786865 231.781509,269.043335 235.162674,259.777161 
	C239.884521,246.836731 247.591797,235.500748 255.192261,224.165634 
	C263.625092,211.589142 272.888397,199.528091 278.878235,185.478256 
	C280.618073,181.397171 282.702179,181.131760 286.029297,183.734528 
	C291.038818,187.653397 291.964417,190.087570 289.861145,196.197800 
	C286.117401,207.073776 279.263641,216.106766 272.603699,225.275909 
	C262.427673,239.285950 252.205704,253.282501 244.792511,269.051697 
	C243.957581,270.827728 242.741287,272.487701 242.779404,275.093445 
	C259.183289,271.609528 274.719666,265.205139 291.308899,262.166870 
	C291.563690,265.177124 290.197021,266.303558 288.348450,267.492676 
z"/>
<path fill="#1800ad" opacity="1.000000" stroke="none" 
	d="
M243.212204,228.416412 
	C231.502258,229.576828 224.345261,223.351151 224.689423,212.691467 
	C224.958450,204.359207 231.523361,198.123810 240.018753,198.131531 
	C248.460861,198.139206 254.363205,203.756989 254.924637,212.792465 
	C251.944733,213.312302 248.853195,213.667114 245.862961,214.422760 
	C242.568237,215.255356 239.578430,216.766373 238.394211,220.329361 
	C237.983765,221.564240 238.465591,222.771454 239.687515,223.247986 
	C243.022125,224.548416 246.208344,224.035675 249.223099,222.149033 
	C250.464752,221.372009 251.202942,219.846756 252.866440,219.671326 
	C252.852097,223.867294 249.808014,226.721054 243.212204,228.416412 
M233.527710,207.464630 
	C233.218674,208.308487 231.940353,208.755829 232.593323,210.236496 
	C236.210693,207.588196 240.990997,208.383835 245.775650,205.952713 
	C240.774948,203.480713 237.210892,203.861053 233.527710,207.464630 
z"/>
<path fill="#1800ad" opacity="1.000000" stroke="none" 
	d="
M190.657944,250.186279 
	C190.632492,248.391983 190.687286,247.053009 190.565918,245.730209 
	C190.311783,242.960663 189.665695,239.879242 186.377808,239.883209 
	C183.049271,239.887238 182.440445,242.949478 182.365875,245.750443 
	C182.281708,248.911819 182.444260,252.082535 182.282562,255.238068 
	C182.182922,257.182495 183.195724,260.006775 179.757690,260.184509 
	C175.957153,260.381073 176.786011,257.379517 176.708710,255.226181 
	C176.583344,251.733948 176.693604,248.233978 176.631592,244.738556 
	C176.584717,242.096207 175.376511,240.029083 172.633606,239.872833 
	C169.917969,239.718124 168.897873,242.082031 168.717621,244.242020 
	C168.372543,248.376755 168.470871,252.549301 168.408661,256.706512 
	C168.379623,258.647522 168.322296,260.415344 165.565674,260.302094 
	C162.959579,260.195068 162.713303,258.513672 162.710754,256.550568 
	C162.702988,250.556870 162.758682,244.562363 162.673981,238.569809 
	C162.630249,235.476334 164.185806,235.369797 166.908401,234.741089 
	C173.278534,233.270065 179.450974,237.259796 185.904572,234.377151 
	C189.774780,232.648422 194.047409,235.831131 195.378448,240.301514 
	C197.075439,246.001007 196.046341,251.875717 196.116821,257.675323 
	C196.139496,259.542145 194.935699,260.256744 193.144257,260.183685 
	C191.479019,260.115723 190.763901,259.206787 190.737793,257.639893 
	C190.698975,255.309784 190.683701,252.979263 190.657944,250.186279 
z"/>
<path fill="#1800ad" opacity="1.000000" stroke="none" 
	d="
M266.920410,238.053589 
	C270.459320,232.973236 283.382660,231.917877 287.488495,236.046036 
	C289.159149,237.725769 289.467896,239.832794 289.228882,242.036926 
	C288.276947,250.816849 284.316345,257.792572 276.562744,262.267731 
	C271.806641,265.012817 266.974823,262.932495 264.774902,257.116333 
	C262.318939,250.623138 264.029938,244.423538 266.920410,238.053589 
M269.894287,256.923431 
	C276.910583,255.572174 283.408722,246.412369 281.942566,239.940155 
	C272.627899,241.989182 269.592163,246.010742 269.894287,256.923431 
z"/>
<path fill="#1800ad" opacity="1.000000" stroke="none" 
	d="
M292.696899,254.006592 
	C289.603119,247.877869 290.888123,242.568970 294.922943,238.023727 
	C298.733826,233.730713 303.614227,232.909973 308.935089,235.309708 
	C309.518860,235.572983 310.196625,235.834518 310.810211,235.792938 
	C317.203217,235.359833 317.203461,235.342590 317.200256,241.599976 
	C317.197723,246.573776 317.220978,251.547897 317.169983,256.521210 
	C317.152771,258.199677 316.781677,260.729553 314.830841,260.055664 
	C310.765228,258.651337 307.423615,261.291077 303.735718,261.136627 
	C298.932312,260.935394 295.254272,258.587646 292.696899,254.006592 
M310.521698,249.805481 
	C311.173401,245.227142 310.077972,241.397919 305.299530,239.850449 
	C302.122040,238.821442 299.944122,240.735992 298.466644,243.429626 
	C296.245758,247.478500 297.446533,252.780823 301.282013,254.754822 
	C305.916626,257.140137 308.319366,254.161057 310.521698,249.805481 
z"/>
<path fill="#1800ad" opacity="1.000000" stroke="none" 
	d="
M204.032791,255.822769 
	C199.716339,248.196625 200.943985,240.694092 206.888824,236.392868 
	C211.141373,233.316040 215.578018,233.318298 219.999084,235.775391 
	C224.618530,238.342743 225.564499,243.034103 226.035141,247.708359 
	C226.299210,250.330826 223.989090,250.288834 222.142258,250.302551 
	C217.858582,250.334396 213.574493,250.312698 209.106018,250.312698 
	C210.940033,255.453934 213.956009,256.783356 218.832382,254.706039 
	C221.046783,253.762726 223.145767,252.937943 224.246811,255.683960 
	C225.337982,258.405457 222.653885,258.975281 220.992035,259.691864 
	C214.628433,262.435699 209.004089,261.226318 204.032791,255.822769 
M217.899384,241.636124 
	C213.208755,238.535202 211.016052,239.101471 208.982864,244.021362 
	C210.943924,245.304001 213.141144,244.631393 215.212921,244.664627 
	C216.723785,244.688858 218.896591,245.082336 217.899384,241.636124 
z"/>
<path fill="#1800ad" opacity="1.000000" stroke="none" 
	d="
M131.664795,246.907288 
	C131.508881,240.316422 134.179230,235.768875 139.913910,233.599289 
	C145.169571,231.610947 150.496292,231.944138 154.786896,236.024139 
	C159.114029,240.138916 160.325348,245.274872 158.607300,251.074417 
	C156.778442,257.247986 152.662949,261.692200 147.841232,265.639709 
	C146.033737,267.119537 144.249725,267.204529 142.469498,265.656006 
	C136.835037,260.754883 132.206039,255.254410 131.664795,246.907288 
M137.998062,239.520859 
	C134.822952,243.004196 134.324203,246.951492 136.418289,251.058456 
	C139.153564,256.423004 145.788437,257.970917 151.058395,254.676926 
	C155.776154,251.728104 157.027145,245.271942 153.783463,240.613358 
	C150.246613,235.533768 144.122604,234.873550 137.998062,239.520859 
z"/>
<path fill="#1800ad" opacity="1.000000" stroke="none" 
	d="
M345.199951,255.776855 
	C345.130219,258.364227 344.895630,260.296997 342.027496,260.258972 
	C339.110046,260.220306 339.038147,258.154938 339.002472,256.112152 
	C338.941620,252.626022 338.899872,249.137009 338.972961,245.651779 
	C339.042023,242.357300 337.725159,239.787109 334.369629,239.726807 
	C330.804321,239.662735 328.542572,241.978592 328.381165,245.708572 
	C328.223389,249.355652 328.295868,253.013062 328.285461,256.665985 
	C328.279755,258.671173 327.938965,260.267029 325.358765,260.311829 
	C322.674622,260.358459 322.547791,258.753448 322.563995,256.721649 
	C322.620728,249.613419 322.585999,242.504456 322.585999,234.421295 
	C327.250916,236.210464 331.081085,234.220230 335.063385,234.099625 
	C340.097565,233.947174 343.276794,236.889023 344.553589,241.917862 
	C345.677368,246.344070 345.028412,250.843369 345.199951,255.776855 
z"/>
<path fill="#1800ad" opacity="1.000000" stroke="none" 
	d="
M147.281189,240.275360 
	C149.115479,241.464218 150.622040,242.471573 152.642609,243.822617 
	C149.206757,246.060501 152.612595,252.207901 145.674484,252.410309 
	C138.928146,252.607101 140.491837,247.340805 138.485397,244.035965 
	C140.952759,241.929062 143.060776,239.231064 147.281189,240.275360 
z"/>
</svg>